<svg xmlns="http://www.w3.org/2000/svg" xmlns:xlink="http://www.w3.org/1999/xlink" width="118" height="90" viewBox="0 0 118 90" fill="none"><path d="M90.6756 23.8408C91.1492 23.9248 91.6258 24.0116 92.0953 24.1163C92.5648 24.2211 93.0321 24.3401 93.4965 24.4653C93.961 24.5905 94.4207 24.7237 94.8793 24.8694C95.338 25.0151 95.7917 25.1814 96.2437 25.3469C96.6956 25.5127 97.1453 25.6758 97.5896 25.8612C98.034 26.0468 98.4813 26.2442 98.9171 26.449C99.353 26.6537 99.7812 26.868 100.208 27.0918C100.634 27.3156 101.045 27.5474 101.462 27.7898C101.878 28.0322 102.291 28.2824 102.697 28.5429C103.102 28.8033 103.501 29.0729 103.895 29.351C104.289 29.6291 104.675 29.9192 105.057 30.2143C105.438 30.5095 105.813 30.8211 106.182 31.1327C106.55 31.4444 106.915 31.7601 107.269 32.0878C107.624 32.4154 107.98 32.7551 108.32 33.098C108.66 33.4408 108.991 33.7873 109.316 34.1449C109.641 34.5024 109.947 34.857 110.256 35.2286C110.565 35.6 110.867 35.9826 111.16 36.3673C111.452 36.7521 111.75 37.1456 112.026 37.5429C112.302 37.9402 112.561 38.3461 112.819 38.7551C113.078 39.1641 113.335 39.5657 113.575 39.9857C113.816 40.4059 114.035 40.8413 114.257 41.2714C114.479 41.7017 114.699 42.136 114.902 42.5755C115.106 43.015 115.29 43.4497 115.474 43.898C115.658 44.3461 115.844 44.8014 116.009 45.2571C116.173 45.713 116.325 46.1722 116.47 46.6347C116.614 47.0974 116.751 47.562 116.875 48.0306C117 48.499 117.103 48.9712 117.207 49.4449C117.311 49.9184 117.419 50.3998 117.502 50.8776C117.586 51.3552 117.661 51.8293 117.723 52.3102C117.786 52.7912 117.829 53.278 117.871 53.7612C117.913 54.2446 117.942 54.7276 117.963 55.2122C117.984 55.6968 118 56.1782 118 56.6633C118 57.2088 117.99 57.7532 117.963 58.298C117.937 58.8429 117.887 59.3898 117.834 59.9327C117.781 60.4757 117.729 61.0095 117.65 61.549C117.57 62.0887 117.478 62.6302 117.373 63.1653C117.268 63.7002 117.136 64.2341 117.004 64.7633C116.873 65.2925 116.737 65.8208 116.58 66.3428C116.423 66.8649 116.246 67.3904 116.064 67.9041C115.882 68.4176 115.699 68.9244 115.492 69.4286C115.286 69.9325 115.06 70.4231 114.829 70.9163C114.598 71.4095 114.346 71.9046 114.091 72.3857C113.836 72.8668 113.576 73.3322 113.298 73.8C113.02 74.2679 112.732 74.7239 112.432 75.1776C112.131 75.631 111.814 76.0801 111.492 76.5184C111.169 76.9565 110.839 77.3823 110.496 77.8041C110.153 78.2258 109.808 78.6489 109.445 79.0531C109.082 79.4573 108.703 79.8428 108.32 80.2286C107.938 80.6143 107.541 81.001 107.14 81.3673C106.74 81.7337 106.341 82.0866 105.923 82.4326C105.505 82.7788 105.067 83.1179 104.633 83.4429C104.198 83.7678 103.773 84.0764 103.324 84.3796C102.874 84.6826 102.405 84.9807 101.941 85.2612C101.477 85.5417 101.016 85.8122 100.54 86.0694C100.063 86.3265 99.5719 86.5709 99.0831 86.8041C98.5942 87.0374 98.1076 87.2566 97.6081 87.4653C97.1084 87.674 96.6052 87.8693 96.0962 88.0531C95.5871 88.2369 95.0649 88.4089 94.5475 88.5673C94.03 88.7256 93.5048 88.8756 92.9803 89.0082C92.4557 89.1407 91.9433 89.2506 91.4131 89.3571C90.8827 89.4635 90.344 89.5525 89.809 89.6327C89.2743 89.7127 88.7432 89.7812 88.205 89.8347C87.6669 89.8882 87.1226 89.9366 86.5825 89.9633C86.0425 89.9901 85.5007 90 84.96 90L33.04 90C32.4992 90 31.9575 89.9901 31.4175 89.9633C30.8774 89.9366 30.3331 89.8882 29.795 89.8347C29.2568 89.7812 28.7257 89.7127 28.1909 89.6327C27.656 89.5525 27.1172 89.4635 26.5869 89.3571C26.0567 89.2506 25.5442 89.1407 25.0197 89.0082C24.4951 88.8756 23.9699 88.7256 23.4525 88.5673C22.9351 88.4089 22.4129 88.2369 21.9037 88.0531C21.3946 87.8693 20.8914 87.674 20.3919 87.4653C19.8923 87.2566 19.4057 87.0374 18.9169 86.8041C18.428 86.5709 17.9372 86.3265 17.4603 86.0694C16.9834 85.8122 16.5228 85.5417 16.0591 85.2612C15.5953 84.9807 15.1258 84.6826 14.6762 84.3796C14.2266 84.0764 13.8015 83.7678 13.3672 83.4429C12.9329 83.1179 12.4945 82.7788 12.0766 82.4326C11.6586 82.0866 11.2603 81.7337 10.8597 81.3673C10.459 81.001 10.062 80.6143 9.67968 80.2286C9.29735 79.8428 8.91814 79.4573 8.555 79.0531C8.19187 78.6489 7.84709 78.2258 7.50406 77.8041C7.16103 77.3823 6.83054 76.9565 6.50843 76.5184C6.18633 76.0801 5.86853 75.631 5.56812 75.1776C5.26773 74.7239 4.97955 74.2679 4.70156 73.8C4.42357 73.3322 4.16364 72.8668 3.90875 72.3857C3.65385 71.9046 3.40243 71.4095 3.17125 70.9163C2.94006 70.4231 2.71442 69.9325 2.5075 69.4286C2.30057 68.9244 2.1181 68.4176 1.93594 67.9041C1.75377 67.3904 1.57665 66.8649 1.41969 66.3428C1.26272 65.8208 1.12701 65.2925 0.995625 64.7633C0.864241 64.2341 0.732365 63.7002 0.626875 63.1653C0.521385 62.6302 0.429652 62.0887 0.350312 61.549C0.270971 61.0095 0.218937 60.4757 0.165937 59.9327C0.112937 59.3898 0.063407 58.8429 0.036875 58.298C0.010343 57.7532 0 57.2088 0 56.6633C0 56.1782 0.0158943 55.6968 0.036875 55.2122C0.0578557 54.7276 0.0871411 54.2446 0.129062 53.7612C0.170984 53.278 0.213779 52.7912 0.276562 52.3102C0.339345 51.8293 0.414289 51.3552 0.497812 50.8776C0.581336 50.3998 0.688707 49.9184 0.792812 49.4449C0.896918 48.9712 1.0002 48.499 1.12469 48.0306C1.24918 47.562 1.38568 47.0974 1.53031 46.6347C1.67495 46.1722 1.82674 45.713 1.99125 45.2571C2.15576 44.8014 2.34187 44.3461 2.52594 43.898C2.71 43.4497 2.89422 43.015 3.0975 42.5755C3.30077 42.136 3.52072 41.7017 3.74281 41.2714C3.9649 40.8413 4.18451 40.4059 4.425 39.9857C4.6655 39.5657 4.92252 39.1641 5.18094 38.7551C5.43937 38.3461 5.69788 37.9402 5.97375 37.5429C6.24962 37.1456 6.54751 36.7521 6.84031 36.3673C7.13311 35.9826 7.43459 35.6 7.74375 35.2286C8.05291 34.857 8.35913 34.5024 8.68406 34.1449C9.009 33.7873 9.33961 33.4408 9.67968 33.098C10.0198 32.7551 10.376 32.4154 10.7306 32.0878C11.0852 31.7601 11.45 31.4444 11.8184 31.1327C12.1868 30.8211 12.5616 30.5095 12.9431 30.2143C13.3247 29.9192 13.7107 29.6291 14.1047 29.351C14.4986 29.0729 14.8975 28.8033 15.3031 28.5429C15.7087 28.2824 16.122 28.0322 16.5384 27.7898C16.9549 27.5474 17.3656 27.3156 17.7922 27.0918C18.2188 26.868 18.647 26.6537 19.0828 26.449C19.5187 26.2442 19.966 26.0468 20.4103 25.8612C20.8546 25.6758 21.3043 25.5127 21.7562 25.3469C22.2081 25.1814 22.662 25.0151 23.1206 24.8694C23.5793 24.7237 24.039 24.5905 24.5034 24.4653C24.9679 24.3401 25.4352 24.2211 25.9047 24.1163C26.3742 24.0116 26.8508 23.9248 27.3244 23.8408C31.3774 10.0579 44.023 0 59 0C73.977 0 86.6225 10.0579 90.6756 23.8408Z" fill-rule="evenodd"  fill="#0055FF" ></path><ellipse cx="83.07177734375" cy="56.666748046875" rx="28.3199462890625" ry="28.5714111328125"   fill="#FFFFFF" ></ellipse><rect  x="16.991943359375" y="47.142822265625" width="4.719970703125" height="19.047607421875" rx="2.3599853515625"    fill="#FFFFFF" ></rect></svg>