<svg xmlns="http://www.w3.org/2000/svg" xmlns:xlink="http://www.w3.org/1999/xlink" width="806" height="171.47998046875" viewBox="0 0 806 171.47998046875" fill="none"><path     fill="#000000"  d="M268 2L345.01 2C368.209 2 381.6 13.37 381.6 13.37C394.993 24.7407 395 45.8 395 45.8C395 55.1359 389.02 64 389.02 64C383.041 72.8571 372.99 79.32 372.99 79.32C387.579 85.5439 396.43 96.79 396.43 96.79C405.279 108.041 405.28 120.97 405.28 120.97C405.28 143.233 390.45 156.4 390.45 156.4C375.622 169.566 350.51 169.56 350.51 169.56L268 169.56L268 2ZM340.23 140.6C352.188 140.6 358.76 133.78 358.76 133.78C365.337 126.958 365.34 115.7 365.34 115.7C365.34 106.603 357.33 100.86 357.33 100.86C349.318 95.1148 333.29 95.12 333.29 95.12L307.46 95.12L307.46 140.6L340.23 140.6ZM334.49 71.9C344.296 71.9 349.79 65.07 349.79 65.07C355.291 58.2476 355.3 50.11 355.3 50.11C355.3 40.5347 349.56 33.72 349.56 33.72C343.82 26.8976 330.18 26.89 330.18 26.89L307.46 26.89L307.46 71.9L334.49 71.9Z"></path><path     fill="#000000"  d="M468.18 50.11L468.18 169.56L429.91 169.56L429.91 50.11L468.18 50.11ZM429.91 2L468.18 2L468.18 33.72L429.91 33.72L429.91 2Z"></path><path     fill="#000000"  d="M505.25 40.3L505.25 3.43L541.13 3.43L541.13 40.3L566 40.3L566 69.5L541.13 69.5L541.13 125.04C541.13 131.982 542.2 135.57 542.2 135.57C543.276 139.161 546.15 140.48 546.15 140.48C549.02 141.797 554.52 141.8 554.52 141.8C558.107 141.8 560.62 141.56 560.62 141.56C563.131 141.321 565.04 140.84 565.04 140.84L565.04 170.28C554.995 171.477 546.39 171.48 546.39 171.48C529.888 171.48 521.75 168.13 521.75 168.13C513.618 164.779 509.44 156.52 509.44 156.52C505.255 148.261 505.25 132.94 505.25 132.94L505.25 69.5L486.6 69.5L486.6 40.3L505.25 40.3Z"></path><path     fill="#0055FF"  d="M689.723 121.914L635.347 121.914L622.481 170L580 170L629.278 0L696.034 0L745.313 170L702.589 170L689.723 121.914ZM681.955 92.7714L662.778 21.6143L662.292 21.6143L643.115 92.7714L681.955 92.7714Z"></path><path     fill="#0055FF"  d="M765.946 0L806 0L806 170L765.946 170L765.946 0Z"></path><g filter="url(#filter_16_5)"><path d="M172.138 45.7599C173.037 45.9176 173.932 46.0948 174.823 46.2915C175.714 46.4883 176.601 46.7042 177.482 46.9394C178.364 47.1745 179.24 47.4289 180.111 47.7025C180.981 47.9762 181.846 48.2684 182.704 48.5793C183.562 48.8905 184.412 49.2201 185.256 49.5683C186.099 49.9167 186.934 50.2831 187.762 50.6676C188.589 51.0521 189.407 51.4545 190.217 51.8748C191.027 52.2951 191.827 52.7328 192.618 53.1879C193.409 53.643 194.189 54.1152 194.959 54.6043C195.729 55.0934 196.488 55.599 197.236 56.1212C197.983 56.6434 198.719 57.1816 199.444 57.7357C200.168 58.2901 200.88 58.8598 201.579 59.4449C202.279 60.0303 202.965 60.6306 203.638 61.2458C204.311 61.861 204.971 62.4905 205.616 63.1343C206.262 63.7781 206.893 64.4358 207.51 65.1073C208.127 65.7785 208.728 66.463 209.315 67.1608C209.902 67.8582 210.474 68.5682 211.029 69.2907C211.585 70.0132 212.125 70.7475 212.648 71.4935C213.172 72.2396 213.679 72.9966 214.17 73.7647C214.661 74.5328 215.134 75.3112 215.59 76.0999C216.047 76.8889 216.486 77.6872 216.908 78.495C217.329 79.303 217.733 80.1197 218.119 80.945C218.505 81.7703 218.873 82.6039 219.222 83.4456C219.571 84.287 219.902 85.1356 220.214 85.9913C220.527 86.8473 220.82 87.7096 221.095 88.5782C221.369 89.447 221.625 90.3214 221.861 91.2012C222.097 92.0808 222.314 92.9653 222.512 93.8547C222.71 94.7438 222.888 95.637 223.046 96.5341C223.205 97.431 223.344 98.331 223.463 99.2341C223.582 100.137 223.681 101.042 223.761 101.95C223.841 102.857 223.9 103.766 223.94 104.676C223.98 105.586 224 106.496 224 107.407C224 108.432 223.975 109.455 223.924 110.478C223.874 111.502 223.799 112.523 223.698 113.542C223.597 114.562 223.472 115.578 223.321 116.591C223.17 117.605 222.995 118.614 222.795 119.619C222.594 120.623 222.369 121.622 222.12 122.616C221.871 123.61 221.597 124.597 221.299 125.577C221.001 126.557 220.679 127.53 220.333 128.494C219.988 129.459 219.618 130.414 219.226 131.361C218.833 132.307 218.417 133.243 217.978 134.169C217.539 135.095 217.078 136.01 216.594 136.913C216.11 137.817 215.604 138.708 215.077 139.586C214.549 140.465 214 141.33 213.43 142.182C212.859 143.034 212.268 143.871 211.657 144.694C211.046 145.516 210.414 146.324 209.763 147.116C209.112 147.908 208.442 148.683 207.752 149.442C207.063 150.201 206.355 150.943 205.63 151.667C204.904 152.391 204.161 153.097 203.4 153.785C202.64 154.473 201.863 155.142 201.069 155.792C200.275 156.442 199.467 157.072 198.642 157.682C197.818 158.292 196.979 158.882 196.125 159.451C195.272 160.02 194.405 160.568 193.524 161.095C192.644 161.621 191.751 162.126 190.846 162.609C189.941 163.092 189.024 163.552 188.096 163.99C187.168 164.428 186.23 164.843 185.282 165.235C184.333 165.627 183.376 165.996 182.41 166.341C181.443 166.686 180.469 167.007 179.487 167.305C178.504 167.602 177.515 167.875 176.52 168.124C175.524 168.373 174.523 168.597 173.516 168.797C172.509 168.997 171.498 169.172 170.483 169.323C169.468 169.473 168.449 169.598 167.427 169.699C166.406 169.799 165.383 169.874 164.357 169.924C163.332 169.975 162.306 170 161.28 170L62.72 170C61.6935 170 60.6677 169.975 59.6427 169.924C58.6173 169.874 57.594 169.799 56.5725 169.699C55.5508 169.598 54.5323 169.473 53.5172 169.323C52.5017 169.172 51.4906 168.997 50.4838 168.797C49.4772 168.597 48.4761 168.373 47.4804 168.124C46.4846 167.875 45.4956 167.602 44.5133 167.305C43.5311 167.007 42.5567 166.686 41.5902 166.341C40.6238 165.996 39.6664 165.627 38.7181 165.235C37.7697 164.843 36.8316 164.428 35.9037 163.99C34.9758 163.552 34.0592 163.092 33.154 162.609C32.2487 162.126 31.3559 161.621 30.4755 161.095C29.595 160.568 28.7281 160.02 27.8746 159.451C27.0212 158.882 26.1822 158.292 25.3577 157.682C24.5333 157.072 23.7243 156.442 22.9308 155.792C22.1374 155.142 21.3603 154.473 20.5998 153.785C19.8392 153.097 19.0961 152.391 18.3702 151.667C17.6444 150.943 16.9369 150.201 16.2475 149.442C15.5582 148.683 14.8879 147.908 14.2368 147.116C13.5856 146.324 12.9543 145.516 12.3428 144.694C11.7313 143.871 11.1405 143.034 10.5702 142.182C9.99995 141.33 9.45097 140.465 8.92326 139.586C8.39555 138.708 7.88975 137.817 7.40589 136.913C6.92202 136.01 6.46065 135.095 6.02179 134.169C5.58293 133.243 5.1671 132.307 4.77429 131.361C4.38147 130.414 4.01216 129.459 3.66635 128.494C3.32055 127.53 2.99866 126.557 2.7007 125.577C2.40273 124.597 2.12905 123.61 1.87964 122.616C1.63023 121.622 1.4054 120.623 1.20515 119.619C1.00489 118.614 0.829461 117.605 0.67885 116.591C0.528235 115.578 0.402623 114.562 0.302014 113.542C0.201403 112.523 0.125915 111.502 0.0755489 110.478C0.025183 109.455 0 108.432 0 107.407C0 106.496 0.0199139 105.586 0.0597417 104.676C0.0995695 103.766 0.159273 102.857 0.238853 101.95C0.318433 101.042 0.417814 100.137 0.536995 99.2341C0.656175 98.331 0.795041 97.431 0.953595 96.5341C1.11215 95.637 1.29024 94.7438 1.48786 93.8547C1.68549 92.9653 1.90246 92.0808 2.13878 91.2012C2.37509 90.3214 2.63054 89.447 2.9051 88.5782C3.17966 87.7096 3.47309 86.8473 3.78537 85.9913C4.09766 85.1356 4.42851 84.287 4.77792 83.4456C5.12733 82.6039 5.49497 81.7703 5.88085 80.945C6.26673 80.1197 6.67046 79.303 7.09206 78.495C7.51366 77.6872 7.95271 76.8889 8.40923 76.0999C8.86577 75.3112 9.33932 74.5328 9.82988 73.7647C10.3205 72.9966 10.8276 72.2396 11.3513 71.4935C11.875 70.7475 12.4147 70.0132 12.9705 69.2907C13.5264 68.5682 14.0977 67.8582 14.6846 67.1608C15.2715 66.463 15.8733 65.7785 16.4901 65.1073C17.1069 64.4358 17.7381 63.7781 18.3837 63.1343C19.0293 62.4905 19.6887 61.861 20.3618 61.2458C21.035 60.6306 21.7212 60.0303 22.4206 59.4449C23.12 58.8598 23.8318 58.2901 24.5561 57.7357C25.2804 57.1816 26.0165 56.6434 26.7644 56.1212C27.5122 55.599 28.2711 55.0934 29.0411 54.6043C29.8111 54.1152 30.5914 53.643 31.382 53.1879C32.1726 52.7328 32.9728 52.2951 33.7826 51.8748C34.5924 51.4545 35.4109 51.0521 36.2383 50.6676C37.0657 50.2831 37.9011 49.9167 38.7445 49.5683C39.5879 49.2201 40.4385 48.8905 41.2964 48.5793C42.1542 48.2684 43.0184 47.9762 43.889 47.7025C44.7598 47.4289 45.636 47.1745 46.5176 46.9394C47.3993 46.7042 48.2857 46.4883 49.1769 46.2915C50.0682 46.0948 50.9633 45.9176 51.8623 45.7599C59.5562 19.8786 83.569 1 112 1C140.431 1 164.444 19.8786 172.138 45.7599Z" fill-rule="evenodd"  fill="#0055FF" ></path></g><g filter="url(#filter_16_6)"><ellipse cx="157.69589233398438" cy="107.40777587890625" rx="53.759979248046875" ry="53.65081787109375"   fill="#FFFFFF" ></ellipse></g><g filter="url(#filter_16_7)"><rect  x="32.2559814453125" y="89.523681640625" width="8.9599609375" height="35.7672119140625" rx="4.47998046875"    fill="#FFFFFF" ></rect></g><defs><filter id="filter_16_5" x="0" y="1" width="223.9998779296875" height="168.9998779296875" filterUnits="userSpaceOnUse" color-interpolation-filters="sRGB"><feFlood flood-opacity="0" result="feFloodId_16_5"/><feBlend mode="normal" in="SourceGraphic" in2="feFloodId_16_5" result="shape_16_5"/><feColorMatrix in="SourceAlpha" type="matrix" values="0 0 0 0 0 0 0 0 0 0 0 0 0 0 0 0 0 0 127 0" result="hardAlpha_16_5"/><feOffset dx="0" dy="2"/><feGaussianBlur stdDeviation="12.5"/><feComposite in2="hardAlpha_16_5" operator="arithmetic" k2="-1" k3="1"/><feColorMatrix type="matrix" values="0 0 0 0 0 0 0 0 0 0 0 0 0 0 0 0 0 0 0.25 0"/><feBlend mode="normal" in2="shape_16_5" result="innerShadow_0_16_5" /></filter><filter id="filter_16_6" x="99.9359130859375" y="51.7569580078125" width="115.51995849609375" height="115.3016357421875" filterUnits="userSpaceOnUse" color-interpolation-filters="sRGB"><feFlood flood-opacity="0" result="feFloodId_16_6"/><feColorMatrix in="SourceAlpha" type="matrix" values="0 0 0 0 0 0 0 0 0 0 0 0 0 0 0 0 0 0 127 0" result="hardAlpha_16_6"/><feOffset dx="0" dy="2"/><feGaussianBlur stdDeviation="2"/><feComposite in2="hardAlpha_16_6" operator="out"/><feColorMatrix type="matrix" values="0 0 0 0 0 0 0 0 0 0 0 0 0 0 0 0 0 0 0.25 0"/><feBlend mode="normal" in2="feFloodId_16_6" result="dropShadow_1_16_6"/><feBlend mode="normal" in="SourceGraphic" in2="dropShadow_1_16_6" result="shape_16_6"/></filter><filter id="filter_16_7" x="28.2559814453125" y="87.523681640625" width="16.9599609375" height="43.7672119140625" filterUnits="userSpaceOnUse" color-interpolation-filters="sRGB"><feFlood flood-opacity="0" result="feFloodId_16_7"/><feColorMatrix in="SourceAlpha" type="matrix" values="0 0 0 0 0 0 0 0 0 0 0 0 0 0 0 0 0 0 127 0" result="hardAlpha_16_7"/><feOffset dx="0" dy="2"/><feGaussianBlur stdDeviation="2"/><feComposite in2="hardAlpha_16_7" operator="out"/><feColorMatrix type="matrix" values="0 0 0 0 0 0 0 0 0 0 0 0 0 0 0 0 0 0 0.25 0"/><feBlend mode="normal" in2="feFloodId_16_7" result="dropShadow_1_16_7"/><feBlend mode="normal" in="SourceGraphic" in2="dropShadow_1_16_7" result="shape_16_7"/></filter></defs></svg>