<svg xmlns="http://www.w3.org/2000/svg" xmlns:xlink="http://www.w3.org/1999/xlink" width="1180" height="251" viewBox="0 0 1180 251" fill="none"><path     fill="#FFFFFF"  d="M392.352 2.92816L505.096 2.92816C539.06 2.92816 558.664 19.5707 558.664 19.5707C578.272 36.2143 578.282 67.0394 578.282 67.0394C578.282 80.7046 569.527 93.6792 569.527 93.6792C560.774 106.644 546.059 116.104 546.059 116.104C567.418 125.214 580.376 141.675 580.376 141.675C593.331 158.143 593.332 177.068 593.332 177.068C593.332 209.654 571.621 228.928 571.621 228.928C549.912 248.199 513.148 248.19 513.148 248.19L392.352 248.19L392.352 2.92816ZM498.098 205.801C515.605 205.801 525.226 195.818 525.226 195.818C534.855 185.832 534.859 169.354 534.859 169.354C534.859 156.039 523.133 147.632 523.133 147.632C511.403 139.223 487.938 139.23 487.938 139.23L450.122 139.23L450.122 205.801L498.098 205.801ZM489.694 105.243C504.05 105.243 512.094 95.2454 512.094 95.2454C520.147 85.2593 520.161 73.3481 520.161 73.3481C520.161 59.3325 511.757 49.3576 511.757 49.3576C503.354 39.3715 483.385 39.3603 483.385 39.3603L450.122 39.3603L450.122 105.243L489.694 105.243Z"></path><path     fill="#FFFFFF"  d="M685.419 73.3481L685.419 248.19L629.391 248.19L629.391 73.3481L685.419 73.3481ZM629.391 2.92816L685.419 2.92816L685.419 49.3576L629.391 49.3576L629.391 2.92816Z"></path><path     fill="#FFFFFF"  d="M739.69 58.9889L739.69 5.02129L792.219 5.02129L792.219 58.9889L828.629 58.9889L828.629 101.73L792.219 101.73L792.219 183.025C792.219 193.186 793.786 198.438 793.786 198.438C795.361 203.694 799.569 205.625 799.569 205.625C803.77 207.552 811.822 207.557 811.822 207.557C817.075 207.557 820.753 207.206 820.753 207.206C824.429 206.856 827.224 206.152 827.224 206.152L827.224 249.244C812.518 250.996 799.92 251.001 799.92 251.001C775.76 251.001 763.847 246.097 763.847 246.097C751.942 241.192 745.824 229.103 745.824 229.103C739.697 217.015 739.69 194.589 739.69 194.589L739.69 101.73L712.386 101.73L712.386 58.9889L739.69 58.9889Z"></path><path     fill="#0055FF"  d="M1009.77 178.449L930.16 178.449L911.324 248.834L849.131 248.834L921.275 0L1019.01 0L1091.15 248.834L1028.6 248.834L1009.77 178.449ZM998.395 135.792L970.319 31.6374L969.608 31.6374L941.533 135.792L998.395 135.792Z"></path><path     fill="#0055FF"  d="M1121.36 0L1180 0L1180 248.834L1121.36 248.834L1121.36 0Z"></path><g filter="url(#filter_16_5)"><path d="M252.013 66.9788C253.329 67.2096 254.639 67.469 255.944 67.757C257.249 68.0449 258.547 68.361 259.837 68.7052C261.128 69.0494 262.411 69.4218 263.685 69.8223C264.96 70.2228 266.225 70.6506 267.482 71.1056C268.737 71.5611 269.983 72.0436 271.217 72.5532C272.452 73.0632 273.675 73.5996 274.887 74.1624C276.098 74.7252 277.296 75.3142 278.481 75.9293C279.667 76.5445 280.839 77.1851 281.996 77.8513C283.154 78.5175 284.296 79.2086 285.423 79.9245C286.55 80.6405 287.661 81.3806 288.756 82.145C289.851 82.9093 290.929 83.697 291.989 84.5081C293.05 85.3195 294.092 86.1535 295.116 87.0099C296.14 87.8668 297.144 88.7454 298.13 89.6459C299.115 90.5464 300.081 91.4678 301.026 92.4102C301.971 93.3525 302.895 94.3152 303.798 95.2981C304.701 96.2806 305.582 97.2825 306.442 98.3038C307.301 99.3247 308.137 100.364 308.951 101.421C309.765 102.479 310.555 103.554 311.321 104.646C312.088 105.738 312.831 106.846 313.549 107.97C314.267 109.095 314.96 110.234 315.628 111.388C316.297 112.543 316.94 113.712 317.557 114.894C318.174 116.077 318.765 117.272 319.33 118.48C319.895 119.688 320.433 120.908 320.945 122.14C321.457 123.372 321.941 124.614 322.398 125.867C322.855 127.12 323.285 128.382 323.687 129.653C324.089 130.925 324.463 132.205 324.809 133.492C325.155 134.78 325.472 136.075 325.762 137.376C326.051 138.678 326.312 139.985 326.544 141.298C326.776 142.611 326.979 143.928 327.154 145.25C327.328 146.572 327.474 147.897 327.59 149.225C327.707 150.554 327.794 151.884 327.853 153.216C327.911 154.548 327.94 155.881 327.94 157.214C327.94 158.713 327.903 160.212 327.829 161.709C327.756 163.207 327.645 164.702 327.498 166.194C327.351 167.686 327.167 169.174 326.946 170.657C326.725 172.14 326.469 173.617 326.176 175.088C325.882 176.558 325.553 178.021 325.188 179.475C324.823 180.93 324.422 182.374 323.986 183.809C323.55 185.244 323.079 186.668 322.572 188.079C322.066 189.491 321.525 190.889 320.95 192.275C320.375 193.66 319.766 195.03 319.124 196.386C318.481 197.741 317.806 199.08 317.098 200.403C316.389 201.725 315.649 203.029 314.876 204.315C314.104 205.601 313.3 206.868 312.465 208.114C311.63 209.361 310.765 210.586 309.87 211.791C308.975 212.995 308.05 214.177 307.097 215.336C306.144 216.495 305.162 217.63 304.153 218.741C303.144 219.852 302.108 220.938 301.046 221.998C299.983 223.058 298.895 224.092 297.781 225.098C296.668 226.105 295.531 227.084 294.369 228.036C293.207 228.987 292.023 229.909 290.816 230.802C289.609 231.695 288.38 232.559 287.131 233.392C285.881 234.225 284.612 235.027 283.323 235.798C282.034 236.568 280.727 237.307 279.402 238.014C278.077 238.721 276.735 239.395 275.376 240.036C274.018 240.677 272.644 241.284 271.256 241.858C269.867 242.432 268.466 242.971 267.051 243.476C265.636 243.982 264.21 244.452 262.772 244.887C261.334 245.322 259.886 245.722 258.428 246.086C256.97 246.451 255.504 246.779 254.031 247.072C252.557 247.364 251.077 247.62 249.59 247.841C248.104 248.061 246.613 248.244 245.117 248.391C243.621 248.538 242.123 248.648 240.622 248.722C239.121 248.795 237.62 248.832 236.117 248.832L91.8232 248.832C90.3204 248.832 88.8186 248.795 87.318 248.722C85.8169 248.648 84.3186 248.538 82.8232 248.391C81.3274 248.244 79.8363 248.061 78.3501 247.841C76.8634 247.62 75.3831 247.364 73.9091 247.072C72.4356 246.779 70.9699 246.451 69.5121 246.086C68.0543 245.722 66.6064 245.322 65.1683 244.887C63.7303 244.452 62.3038 243.982 60.8889 243.476C59.474 242.971 58.0723 242.432 56.684 241.858C55.2956 241.284 53.9222 240.677 52.5637 240.036C51.2052 239.395 49.8633 238.721 48.538 238.014C47.2127 237.307 45.9056 236.568 44.6166 235.798C43.3277 235.027 42.0585 234.225 40.809 233.392C39.5595 232.559 38.3312 231.695 37.1242 230.802C35.9171 229.909 34.7328 228.987 33.5711 228.036C32.4095 227.084 31.2719 226.105 30.1585 225.098C29.045 224.092 27.957 223.058 26.8944 221.998C25.8318 220.938 24.7959 219.852 23.7867 218.741C22.7775 217.63 21.7962 216.495 20.8429 215.336C19.8895 214.177 18.9653 212.995 18.0701 211.791C17.1749 210.586 16.3099 209.361 15.475 208.114C14.6401 206.868 13.8364 205.601 13.0638 204.315C12.2912 203.029 11.5507 201.725 10.8424 200.403C10.134 199.08 9.45851 197.741 8.81601 196.386C8.17351 195.03 7.56472 193.66 6.98965 192.275C6.41455 190.889 5.87387 189.491 5.36761 188.079C4.86134 186.668 4.3901 185.244 3.95387 183.809C3.51765 182.374 3.11696 180.93 2.75182 179.475C2.38669 178.021 2.05753 176.558 1.76436 175.088C1.47118 173.617 1.21435 172.14 0.993848 170.657C0.773346 169.174 0.589448 167.686 0.442154 166.194C0.294858 164.702 0.184342 163.207 0.110605 161.709C0.0368683 160.212 0 158.713 0 157.214C0 155.881 0.0291543 154.548 0.0874629 153.216C0.145772 151.884 0.233179 150.554 0.349685 149.225C0.466192 147.897 0.611687 146.572 0.78617 145.25C0.960652 143.928 1.16396 142.611 1.39608 141.298C1.6282 139.985 1.88893 138.678 2.17826 137.376C2.46758 136.075 2.78523 134.78 3.13121 133.492C3.47718 132.205 3.85115 130.925 4.25312 129.653C4.65509 128.382 5.08467 127.12 5.54186 125.867C5.99905 124.614 6.48342 123.372 6.99496 122.14C7.5065 120.908 8.04474 119.688 8.60967 118.48C9.1746 117.272 9.76568 116.077 10.3829 114.894C11.0001 113.712 11.6429 112.543 12.3113 111.388C12.9796 110.234 13.6729 109.095 14.3911 107.97C15.1094 106.846 15.8518 105.738 16.6185 104.646C17.3852 103.554 18.1754 102.479 18.9891 101.421C19.8028 100.364 20.6393 99.3247 21.4985 98.3038C22.3577 97.2825 23.2388 96.2806 24.1418 95.2981C25.0449 94.3152 25.969 93.3525 26.9141 92.4102C27.8593 91.4678 28.8246 90.5464 29.8101 89.6459C30.7956 88.7454 31.8003 87.8668 32.8242 87.0099C33.848 86.1535 34.8902 85.3195 35.9506 84.5081C37.011 83.697 38.0886 82.9093 39.1835 82.145C40.2784 81.3806 41.3895 80.6405 42.5167 79.9245C43.644 79.2086 44.7863 78.5175 45.9438 77.8513C47.1013 77.1851 48.2728 76.5445 49.4583 75.9293C50.6439 75.3142 51.8423 74.7252 53.0535 74.1624C54.2649 73.5996 55.4879 73.0632 56.7227 72.5532C57.9574 72.0436 59.2027 71.5611 60.4586 71.1056C61.7145 70.6506 62.9797 70.2228 64.2543 69.8223C65.5291 69.4218 66.8119 69.0494 68.1026 68.7052C69.3934 68.361 70.6912 68.0449 71.9959 67.757C73.3007 67.469 74.6112 67.2096 75.9273 66.9788C87.1914 29.0957 122.347 1.46252 163.97 1.46252C205.593 1.46252 240.749 29.0957 252.013 66.9788Z" fill-rule="evenodd"  fill="#0055FF" ></path></g><g filter="url(#filter_16_6)"><ellipse cx="230.87118530273438" cy="157.2181396484375" rx="78.70565795898438" ry="78.5301513671875"   fill="#FFFFFF" ></ellipse></g><g filter="url(#filter_16_7)"><rect  x="47.21728515625" y="131.033447265625" width="13.1175537109375" height="52.3533935546875" rx="6.55877685546875"    fill="#FFFFFF" ></rect></g><defs><filter id="filter_16_5" x="0" y="1.4625244140625" width="327.93994140625" height="247.3697509765625" filterUnits="userSpaceOnUse" color-interpolation-filters="sRGB"><feFlood flood-opacity="0" result="feFloodId_16_5"/><feBlend mode="normal" in="SourceGraphic" in2="feFloodId_16_5" result="shape_16_5"/><feColorMatrix in="SourceAlpha" type="matrix" values="0 0 0 0 0 0 0 0 0 0 0 0 0 0 0 0 0 0 127 0" result="hardAlpha_16_5"/><feOffset dx="0" dy="2"/><feGaussianBlur stdDeviation="12.5"/><feComposite in2="hardAlpha_16_5" operator="arithmetic" k2="-1" k3="1"/><feColorMatrix type="matrix" values="0 0 0 0 0 0 0 0 0 0 0 0 0 0 0 0 0 0 0.25 0"/><feBlend mode="normal" in2="shape_16_5" result="innerShadow_0_16_5" /></filter><filter id="filter_16_6" x="148.16552734375" y="76.68798828125" width="165.41131591796875" height="165.060302734375" filterUnits="userSpaceOnUse" color-interpolation-filters="sRGB"><feFlood flood-opacity="0" result="feFloodId_16_6"/><feColorMatrix in="SourceAlpha" type="matrix" values="0 0 0 0 0 0 0 0 0 0 0 0 0 0 0 0 0 0 127 0" result="hardAlpha_16_6"/><feOffset dx="0" dy="2"/><feGaussianBlur stdDeviation="2"/><feComposite in2="hardAlpha_16_6" operator="out"/><feColorMatrix type="matrix" values="0 0 0 0 0 0 0 0 0 0 0 0 0 0 0 0 0 0 0.25 0"/><feBlend mode="normal" in2="feFloodId_16_6" result="dropShadow_1_16_6"/><feBlend mode="normal" in="SourceGraphic" in2="dropShadow_1_16_6" result="shape_16_6"/></filter><filter id="filter_16_7" x="43.21728515625" y="129.033447265625" width="21.1175537109375" height="60.3533935546875" filterUnits="userSpaceOnUse" color-interpolation-filters="sRGB"><feFlood flood-opacity="0" result="feFloodId_16_7"/><feColorMatrix in="SourceAlpha" type="matrix" values="0 0 0 0 0 0 0 0 0 0 0 0 0 0 0 0 0 0 127 0" result="hardAlpha_16_7"/><feOffset dx="0" dy="2"/><feGaussianBlur stdDeviation="2"/><feComposite in2="hardAlpha_16_7" operator="out"/><feColorMatrix type="matrix" values="0 0 0 0 0 0 0 0 0 0 0 0 0 0 0 0 0 0 0.25 0"/><feBlend mode="normal" in2="feFloodId_16_7" result="dropShadow_1_16_7"/><feBlend mode="normal" in="SourceGraphic" in2="dropShadow_1_16_7" result="shape_16_7"/></filter></defs></svg>