<svg xmlns="http://www.w3.org/2000/svg" xmlns:xlink="http://www.w3.org/1999/xlink" width="327.93994140625" height="247.369873046875" viewBox="0 0 327.93994140625 247.369873046875" fill="none"><g filter="url(#filter_16_5)"><path d="M252.013 65.5163C253.329 65.7471 254.639 66.0065 255.944 66.2944C257.249 66.5824 258.547 66.8985 259.837 67.2427C261.128 67.5869 262.411 67.9593 263.685 68.3598C264.96 68.7603 266.225 69.188 267.482 69.6431C268.737 70.0985 269.983 70.5811 271.217 71.0906C272.452 71.6007 273.675 72.1371 274.887 72.6999C276.098 73.2627 277.296 73.8516 278.481 74.4668C279.667 75.0819 280.839 75.7226 281.996 76.3888C283.154 77.055 284.296 77.7461 285.423 78.462C286.55 79.1779 287.661 79.9181 288.756 80.6824C289.851 81.4468 290.929 82.2345 291.989 83.0455C293.05 83.857 294.092 84.691 295.116 85.5474C296.14 86.4042 297.144 87.2829 298.13 88.1834C299.115 89.0839 300.081 90.0053 301.026 90.9476C301.971 91.89 302.895 92.8526 303.798 93.8356C304.701 94.8181 305.582 95.82 306.442 96.8413C307.301 97.8622 308.137 98.9014 308.951 99.959C309.765 101.016 310.555 102.091 311.321 103.183C312.088 104.275 312.831 105.383 313.549 106.508C314.267 107.632 314.96 108.771 315.628 109.926C316.297 111.081 316.94 112.249 317.557 113.431C318.174 114.614 318.765 115.81 319.33 117.018C319.895 118.226 320.433 119.446 320.945 120.678C321.457 121.909 321.941 123.152 322.398 124.404C322.855 125.657 323.285 126.919 323.687 128.191C324.089 129.462 324.463 130.742 324.809 132.03C325.155 133.317 325.472 134.612 325.762 135.914C326.051 137.215 326.312 138.523 326.544 139.836C326.776 141.149 326.979 142.466 327.154 143.788C327.328 145.11 327.474 146.435 327.59 147.763C327.707 149.091 327.794 150.422 327.853 151.753C327.911 153.085 327.94 154.418 327.94 155.751C327.94 157.251 327.903 158.749 327.829 160.246C327.756 161.744 327.645 163.239 327.498 164.731C327.351 166.224 327.167 167.711 326.946 169.194C326.725 170.678 326.469 172.155 326.176 173.625C325.882 175.096 325.553 176.558 325.188 178.013C324.823 179.467 324.422 180.912 323.986 182.347C323.55 183.782 323.079 185.205 322.572 186.617C322.066 188.028 321.525 189.427 320.95 190.812C320.375 192.198 319.766 193.568 319.124 194.923C318.481 196.279 317.806 197.618 317.098 198.94C316.389 200.263 315.649 201.567 314.876 202.852C314.104 204.138 313.3 205.405 312.465 206.652C311.63 207.898 310.765 209.124 309.87 210.328C308.975 211.533 308.05 212.714 307.097 213.873C306.144 215.033 305.162 216.168 304.153 217.278C303.144 218.389 302.108 219.475 301.046 220.535C299.983 221.595 298.895 222.629 297.781 223.636C296.668 224.643 295.531 225.622 294.369 226.573C293.207 227.525 292.023 228.447 290.816 229.34C289.609 230.233 288.38 231.096 287.131 231.929C285.881 232.762 284.612 233.564 283.323 234.335C282.034 235.106 280.727 235.845 279.402 236.552C278.077 237.258 276.735 237.932 275.376 238.573C274.018 239.214 272.644 239.822 271.256 240.396C269.867 240.969 268.466 241.509 267.051 242.014C265.636 242.519 264.21 242.989 262.772 243.425C261.334 243.86 259.886 244.259 258.428 244.624C256.97 244.988 255.504 245.317 254.031 245.609C252.557 245.902 251.077 246.158 249.59 246.378C248.104 246.598 246.613 246.782 245.117 246.929C243.621 247.076 242.123 247.186 240.622 247.259C239.121 247.333 237.62 247.37 236.117 247.37L91.8232 247.37C90.3204 247.37 88.8186 247.333 87.318 247.259C85.8169 247.186 84.3186 247.076 82.8232 246.929C81.3274 246.782 79.8363 246.598 78.3501 246.378C76.8634 246.158 75.3831 245.902 73.9091 245.609C72.4356 245.317 70.9699 244.988 69.5121 244.624C68.0543 244.259 66.6064 243.86 65.1683 243.425C63.7303 242.989 62.3038 242.519 60.8889 242.014C59.474 241.509 58.0723 240.969 56.684 240.396C55.2956 239.822 53.9222 239.214 52.5637 238.573C51.2052 237.932 49.8633 237.258 48.538 236.552C47.2127 235.845 45.9056 235.106 44.6166 234.335C43.3277 233.564 42.0585 232.762 40.809 231.929C39.5595 231.096 38.3312 230.233 37.1242 229.34C35.9171 228.447 34.7328 227.525 33.5711 226.573C32.4095 225.622 31.2719 224.643 30.1585 223.636C29.045 222.629 27.957 221.595 26.8944 220.535C25.8318 219.475 24.7959 218.389 23.7867 217.278C22.7775 216.168 21.7962 215.033 20.8429 213.873C19.8895 212.714 18.9653 211.533 18.0701 210.328C17.1749 209.124 16.3099 207.898 15.475 206.652C14.6401 205.405 13.8364 204.138 13.0638 202.852C12.2912 201.567 11.5507 200.263 10.8424 198.94C10.134 197.618 9.45851 196.279 8.81601 194.923C8.17351 193.568 7.56472 192.198 6.98965 190.812C6.41455 189.427 5.87387 188.028 5.36761 186.617C4.86134 185.205 4.3901 183.782 3.95387 182.347C3.51765 180.912 3.11696 179.467 2.75182 178.013C2.38669 176.558 2.05753 175.096 1.76436 173.625C1.47118 172.155 1.21435 170.678 0.993848 169.194C0.773346 167.711 0.589448 166.224 0.442154 164.731C0.294858 163.239 0.184342 161.744 0.110605 160.246C0.0368683 158.749 0 157.251 0 155.751C0 154.418 0.0291543 153.085 0.0874629 151.753C0.145772 150.422 0.233179 149.091 0.349685 147.763C0.466192 146.435 0.611687 145.11 0.78617 143.788C0.960652 142.466 1.16396 141.149 1.39608 139.836C1.6282 138.523 1.88893 137.215 2.17826 135.914C2.46758 134.612 2.78523 133.317 3.13121 132.03C3.47718 130.742 3.85115 129.462 4.25312 128.191C4.65509 126.919 5.08467 125.657 5.54186 124.404C5.99905 123.152 6.48342 121.909 6.99496 120.678C7.5065 119.446 8.04474 118.226 8.60967 117.018C9.1746 115.81 9.76568 114.614 10.3829 113.431C11.0001 112.249 11.6429 111.081 12.3113 109.926C12.9796 108.771 13.6729 107.632 14.3911 106.508C15.1094 105.383 15.8518 104.275 16.6185 103.183C17.3852 102.091 18.1754 101.016 18.9891 99.959C19.8028 98.9014 20.6393 97.8622 21.4985 96.8413C22.3577 95.82 23.2388 94.8181 24.1418 93.8356C25.0449 92.8526 25.969 91.89 26.9141 90.9476C27.8593 90.0053 28.8246 89.0839 29.8101 88.1834C30.7956 87.2829 31.8003 86.4042 32.8242 85.5474C33.848 84.691 34.8902 83.857 35.9506 83.0455C37.011 82.2345 38.0886 81.4468 39.1835 80.6824C40.2784 79.9181 41.3895 79.1779 42.5167 78.462C43.644 77.7461 44.7863 77.055 45.9438 76.3888C47.1013 75.7226 48.2728 75.0819 49.4583 74.4668C50.6439 73.8516 51.8423 73.2627 53.0535 72.6999C54.2649 72.1371 55.4879 71.6007 56.7227 71.0906C57.9574 70.5811 59.2027 70.0985 60.4586 69.6431C61.7145 69.188 62.9797 68.7603 64.2543 68.3598C65.5291 67.9593 66.8119 67.5869 68.1026 67.2427C69.3934 66.8985 70.6912 66.5824 71.9959 66.2944C73.3007 66.0065 74.6112 65.7471 75.9273 65.5163C87.1914 27.6332 122.347 0 163.97 0C205.593 0 240.749 27.6332 252.013 65.5163Z" fill-rule="evenodd"  fill="#0055FF" ></path></g><g filter="url(#filter_16_6)"><ellipse cx="230.87118530273438" cy="155.755615234375" rx="78.70565795898438" ry="78.5301513671875"   fill="#FFFFFF" ></ellipse></g><g filter="url(#filter_16_7)"><rect  x="47.21728515625" y="129.5709228515625" width="13.1175537109375" height="52.3533935546875" rx="6.55877685546875"    fill="#FFFFFF" ></rect></g><defs><filter id="filter_16_5" x="0" y="0" width="327.93994140625" height="247.3697509765625" filterUnits="userSpaceOnUse" color-interpolation-filters="sRGB"><feFlood flood-opacity="0" result="feFloodId_16_5"/><feBlend mode="normal" in="SourceGraphic" in2="feFloodId_16_5" result="shape_16_5"/><feColorMatrix in="SourceAlpha" type="matrix" values="0 0 0 0 0 0 0 0 0 0 0 0 0 0 0 0 0 0 127 0" result="hardAlpha_16_5"/><feOffset dx="0" dy="2"/><feGaussianBlur stdDeviation="12.5"/><feComposite in2="hardAlpha_16_5" operator="arithmetic" k2="-1" k3="1"/><feColorMatrix type="matrix" values="0 0 0 0 0 0 0 0 0 0 0 0 0 0 0 0 0 0 0.25 0"/><feBlend mode="normal" in2="shape_16_5" result="innerShadow_0_16_5" /></filter><filter id="filter_16_6" x="148.16552734375" y="75.2254638671875" width="165.41131591796875" height="165.060302734375" filterUnits="userSpaceOnUse" color-interpolation-filters="sRGB"><feFlood flood-opacity="0" result="feFloodId_16_6"/><feColorMatrix in="SourceAlpha" type="matrix" values="0 0 0 0 0 0 0 0 0 0 0 0 0 0 0 0 0 0 127 0" result="hardAlpha_16_6"/><feOffset dx="0" dy="2"/><feGaussianBlur stdDeviation="2"/><feComposite in2="hardAlpha_16_6" operator="out"/><feColorMatrix type="matrix" values="0 0 0 0 0 0 0 0 0 0 0 0 0 0 0 0 0 0 0.25 0"/><feBlend mode="normal" in2="feFloodId_16_6" result="dropShadow_1_16_6"/><feBlend mode="normal" in="SourceGraphic" in2="dropShadow_1_16_6" result="shape_16_6"/></filter><filter id="filter_16_7" x="43.21728515625" y="127.5709228515625" width="21.1175537109375" height="60.3533935546875" filterUnits="userSpaceOnUse" color-interpolation-filters="sRGB"><feFlood flood-opacity="0" result="feFloodId_16_7"/><feColorMatrix in="SourceAlpha" type="matrix" values="0 0 0 0 0 0 0 0 0 0 0 0 0 0 0 0 0 0 127 0" result="hardAlpha_16_7"/><feOffset dx="0" dy="2"/><feGaussianBlur stdDeviation="2"/><feComposite in2="hardAlpha_16_7" operator="out"/><feColorMatrix type="matrix" values="0 0 0 0 0 0 0 0 0 0 0 0 0 0 0 0 0 0 0.25 0"/><feBlend mode="normal" in2="feFloodId_16_7" result="dropShadow_1_16_7"/><feBlend mode="normal" in="SourceGraphic" in2="dropShadow_1_16_7" result="shape_16_7"/></filter></defs></svg>